  <svg
      width="340"
      height="320"
      viewBox="0 0 100 80"
      fill="none"
      xmlns="http://www.w3.org/2000/svg"
    >
      <g id="triangles">
        <g id="darkGroup">
          <path
            id="dark1"
            opacity="0.8"
            d="M51 48.768C52.3333 49.5378 52.3333 51.4623 51 52.2321L24.75 67.3875C23.4167 68.1573 21.75 67.195 21.75 65.6554L21.75 35.3445C21.75 33.8049 23.4167 32.8427 24.75 33.6125L51 48.768Z"
          />
          <path
            id="dark2"
            opacity="0.8"
            d="M38.23 47.746C39.7785 48.6401 40.5528 49.0871 40.8185 49.6674C41.0605 50.1961 41.0605 50.8039 40.8185 51.3326C40.5528 51.9129 39.7785 52.3599 38.23 53.254L15.52 66.3656C13.9715 67.2596 13.1972 67.7066 12.5618 67.6466C11.9829 67.5919 11.4566 67.2879 11.1197 66.814C10.75 66.2937 10.75 65.3997 10.75 63.6116L10.75 37.3884C10.75 35.6003 10.75 34.7063 11.1197 34.186C11.4566 33.7121 11.9829 33.4081 12.5618 33.3534C13.1972 33.2934 13.9715 33.7404 15.52 34.6344L38.23 47.746Z"
          />
        </g>
        <g id="lightGroup">
          <path
            id="light1"
            opacity="0.6"
            d="M40 48.768C41.3333 49.5378 41.3333 51.4623 40 52.2321L13.75 67.3875C12.4167 68.1573 10.75 67.195 10.75 65.6554L10.75 35.3445C10.75 33.8049 12.4167 32.8427 13.75 33.6125L40 48.768Z"
          />
        </g>
      </g>
    </svg> 